<svg xmlns="http://www.w3.org/2000/svg" width="1380.417" height="1001.388" viewBox="0 0 1380.4172 1001.3879">
    <rect ry="3.884" y="566.953" x="944.267" height="229.784" width="57.446" fill="#57b4e6"/>
    <rect ry="3.08" y="614.525" x="1022.358" height="182.211" width="57.446" fill="#b24523"/>
    <rect ry="5.811" y="454.305" x="1100.244" height="343.778" width="57.446" fill="green"/>
    <path d="M407.266 59.813v799.755" fill="none" stroke="#ac9e9c" stroke-width="10" stroke-dasharray="40,40" stroke-dashoffset="94"/>
    <path d="M659.764 700.226v98.377h85.684c-43.19-32.792-63.847-65.585-85.684-98.377zM173.271 699.274v98.377H87.588c43.19-32.792 63.847-65.585 85.683-98.377z" fill="#c7f4c7" fill-rule="evenodd"/>
    <path d="M640.226 953.945l49.983 37.447 49.982-37.447" fill="none" stroke="#7f2f21" stroke-width="16"/>
    <path d="M80.783 59.813v799.755M21.542 800.327H1334.72" fill="none" stroke="#6d2b15" stroke-width="10"/>
    <path d="M993.635 847.9s-161.683 3.02-244.145-46.675C552.888 682.743 610.098 182.783 408.405 182.783c-201.694 0-138.465 529.895-328.783 617.975l-52.245 22.458" fill="none" stroke="green" stroke-width="10"/>
    <circle r="205.998" cy="272.486" cx="931.252" fill="#b24523"/>
    <path d="M866.135 77.117a205.998 205.998 0 0 1 253.81 112.5l-188.581 82.898z" fill="green"/>
    <path d="M1079.647 129.608a205.998 205.998 0 0 1 41.964 64.147l-190.359 78.73z" fill="#57b4e6"/>
</svg>
