<svg xmlns="http://www.w3.org/2000/svg" width="48" height="48" viewBox="0 0 48 48">
    <g transform="translate(0 -1004.362)">
        <circle cx="24" cy="1028.362" r="19" fill="green"/>
        <g fill="#f4e9c4">
            <path d="M21.314 1010.887l.872.872-2.641 2.641 3.168 3.168 2.64-2.641.873.871-6.444 6.444-.872-.872 3.069-3.068-3.168-3.168-3.069 3.068-.871-.871 6.443-6.444zM26.452 1016.025l5.451 5.45-.734.734-2.287-2.287-5.71 5.71-.876-.876 5.71-5.71-2.288-2.288.734-.733zM32.134 1021.706l1.299 1.3-2.74 6.029 6.037-2.732 1.3 1.299-6.444 6.443-.85-.85 5.657-5.658-6.08 2.758-.877-.876 2.758-6.081-5.658 5.658-.846-.846 6.444-6.444zM39.149 1028.722l.872.871-5.71 5.71 3.137 3.138-.733.734-4.01-4.01 6.444-6.443z"/>
        </g>
        <g fill="#f4e9c4">
            <path d="M20.324 1027.965l-.919.919q-.03-.85-.328-1.554-.294-.699-.855-1.26-1.104-1.105-2.369-1.014-1.26.086-2.538 1.364-1.273 1.273-1.364 2.537-.086 1.26 1.019 2.366.561.56 1.26.854.704.298 1.554.328l-.91.91q-.769-.146-1.438-.504-.664-.354-1.234-.924-1.463-1.463-1.411-3.198.056-1.74 1.605-3.289 1.554-1.553 3.289-1.605 1.739-.056 3.202 1.407.578.578.932 1.243.363.664.505 1.42zM25.212 1032.283l-.85.85q-.26-.734-.583-1.29-.324-.557-.734-.967-.712-.712-1.377-.825-.66-.108-1.17.402-.426.427-.392.902.043.474.626 1.325l.419.634q.79 1.161.78 2.093 0 .933-.785 1.718-.936.937-2.05.79-1.109-.143-2.322-1.355-.457-.458-.872-1.08-.41-.617-.76-1.372l.899-.897q.233.828.59 1.488.359.66.851 1.153.747.746 1.446.859.699.112 1.243-.432.475-.475.449-1.036-.022-.557-.553-1.355l-.427-.634q-.781-1.17-.803-2.02-.021-.85.717-1.588.854-.855 1.946-.747 1.096.112 2.154 1.17.453.453.841 1.005.389.553.717 1.209zM30.207 1037.278l-.85.85q-.26-.733-.583-1.29-.323-.557-.733-.967-.713-.712-1.377-.824-.66-.108-1.17.401-.427.427-.393.902.044.475.626 1.325l.419.634q.79 1.161.781 2.094 0 .932-.785 1.717-.937.937-2.05.79-1.11-.142-2.322-1.355-.458-.458-.872-1.079-.41-.617-.76-1.372l.898-.898q.233.829.591 1.489.358.66.85 1.152.747.747 1.446.859.7.112 1.243-.432.475-.474.45-1.035-.023-.557-.553-1.356l-.428-.634q-.78-1.17-.802-2.02-.022-.85.716-1.588.855-.855 1.946-.747 1.097.113 2.154 1.17.453.453.842 1.006.388.552.716 1.208z"/>
        </g>
    </g>
</svg>
