<svg xmlns="http://www.w3.org/2000/svg" height="48" width="48" viewBox="0 0 48 48">
    <g transform="translate(0 -1004.362)">
        <circle r="1.5" cy="1041.862" cx="31.5" fill="#fff"/>
        <circle transform="scale(-1)" r="1.5" cy="-1014.796" cx="-16.437" fill="#fff"/>
        <circle r="19" cy="1028.362" cx="24" fill="#b24523"/>
        <path d="M10 1032.362c0 8 11 8 11 0v-11.92" fill="none" stroke="#f6edcf" stroke-width="2.5"/>
        <path style="line-height:120.00000477%" d="M36.216 1017.29v2.375q-1.386-.663-2.616-.989-1.23-.325-2.375-.325-1.99 0-3.075.771-1.073.772-1.073 2.195 0 1.193.711 1.808.724.603 2.725.977l1.471.301q2.725.519 4.015 1.833 1.303 1.302 1.303 3.497 0 2.616-1.76 3.967-1.75 1.35-5.137 1.35-1.278 0-2.725-.29-1.435-.289-2.978-.855v-2.508q1.483.832 2.905 1.254 1.423.422 2.798.422 2.086 0 3.22-.82 1.133-.82 1.133-2.34 0-1.326-.82-2.073-.808-.748-2.665-1.122l-1.483-.289q-2.725-.543-3.943-1.7-1.218-1.158-1.218-3.22 0-2.387 1.676-3.761 1.688-1.375 4.642-1.375 1.266 0 2.58.23 1.315.228 2.69.687z" font-size="24.693" font-weight="400" font-family="sans-serif" letter-spacing="0" word-spacing="0" fill="#f6edcf"/>
    </g>
</svg>
