<?xml version="1.0" encoding="UTF-8" standalone="no"?>
<svg
   xmlns:dc="http://purl.org/dc/elements/1.1/"
   xmlns:cc="http://creativecommons.org/ns#"
   xmlns:rdf="http://www.w3.org/1999/02/22-rdf-syntax-ns#"
   xmlns:svg="http://www.w3.org/2000/svg"
   xmlns="http://www.w3.org/2000/svg"
   xmlns:xlink="http://www.w3.org/1999/xlink"
   xmlns:sodipodi="http://sodipodi.sourceforge.net/DTD/sodipodi-0.dtd"
   xmlns:inkscape="http://www.inkscape.org/namespaces/inkscape"
   width="1380.4172"
   height="1001.3879"
   viewBox="0 0 1380.4172 1001.3879"
   id="svg2"
   version="1.1"
   sodipodi:docname="web-design.svg"
   inkscape:version="0.92.3 (2405546, 2018-03-11)">
  <sodipodi:namedview
     pagecolor="#ffffff"
     bordercolor="#666666"
     borderopacity="1"
     objecttolerance="10"
     gridtolerance="10"
     guidetolerance="10"
     inkscape:pageopacity="0"
     inkscape:pageshadow="2"
     inkscape:window-width="3200"
     inkscape:window-height="1678"
     id="namedview33"
     showgrid="false"
     showguides="true"
     inkscape:guide-bbox="true"
     inkscape:zoom="0.94269166"
     inkscape:cx="650.78395"
     inkscape:cy="574.90608"
     inkscape:window-x="0"
     inkscape:window-y="66"
     inkscape:window-maximized="1"
     inkscape:current-layer="svg2">
    <sodipodi:guide
       position="419.01293,186.69944"
       orientation="0,1"
       id="guide845"
       inkscape:locked="false" />
  </sodipodi:namedview>
  <defs
     id="defs4">
    <linearGradient
       id="linearGradient4839">
      <stop
         id="stop4841"
         offset="0"
         style="stop-color:#1d1d1d;stop-opacity:1;" />
      <stop
         id="stop4843"
         offset="1"
         style="stop-color:#2f2f2f;stop-opacity:1" />
    </linearGradient>
    <linearGradient
       id="linearGradient4833">
      <stop
         id="stop4835"
         offset="0"
         style="stop-color:#1d1d1d;stop-opacity:1;" />
      <stop
         id="stop4837"
         offset="1"
         style="stop-color:#404040;stop-opacity:1" />
    </linearGradient>
    <linearGradient
       xlink:href="#linearGradient4742"
       id="linearGradient4748"
       x1="122.16331"
       y1="287.9455"
       x2="414.2796"
       y2="477.09656"
       gradientUnits="userSpaceOnUse"
       gradientTransform="matrix(1.7538248,0,0,1.7538248,452.58469,-66.644906)" />
    <linearGradient
       id="linearGradient4742">
      <stop
         style="stop-color:#1d1d1d;stop-opacity:1;"
         offset="0"
         id="stop4744" />
      <stop
         style="stop-color:#1d1d1d;stop-opacity:0.903"
         offset="1"
         id="stop4746" />
    </linearGradient>
    <filter
       style="color-interpolation-filters:sRGB"
       id="filter4711"
       x="-0.064853728"
       width="1.1297075"
       y="-0.12414857"
       height="1.2482971">
      <feGaussianBlur
         stdDeviation="0.2263125"
         id="feGaussianBlur4713" />
    </filter>
    <linearGradient
       xlink:href="#linearGradient4742"
       id="linearGradient4748-3"
       x1="122.16331"
       y1="287.9455"
       x2="414.2796"
       y2="477.09656"
       gradientUnits="userSpaceOnUse"
       gradientTransform="matrix(1.7538248,0,0,1.7538248,-14.053708,-361.08067)" />
    <linearGradient
       gradientTransform="translate(-69.651543,0)"
       gradientUnits="userSpaceOnUse"
       y2="677.43372"
       x2="1035.9509"
       y1="130.96234"
       x1="189.56451"
       id="linearGradient4823"
       xlink:href="#linearGradient4833" />
    <linearGradient
       gradientTransform="translate(-10.99997)"
       gradientUnits="userSpaceOnUse"
       y2="766.47473"
       x2="1191.639"
       y1="430.72171"
       x1="660.01111"
       id="linearGradient4831"
       xlink:href="#linearGradient4833" />
    <linearGradient
       gradientUnits="userSpaceOnUse"
       y2="677.43372"
       x2="1035.9509"
       y1="130.96234"
       x1="189.56451"
       id="linearGradient4823-3"
       xlink:href="#linearGradient4833"
       gradientTransform="matrix(0.14335267,0,0,0.36279653,149.975,563.53689)" />
    <linearGradient
       gradientUnits="userSpaceOnUse"
       y2="677.43372"
       x2="1035.9509"
       y1="130.96234"
       x1="189.56451"
       id="linearGradient4823-9"
       xlink:href="#linearGradient4833"
       gradientTransform="matrix(0.2663767,0,0,0.62009288,1002.116,384.93138)" />
  </defs>
  <metadata
     id="metadata7">
    <rdf:RDF>
      <cc:Work
         rdf:about="">
        <dc:format>image/svg+xml</dc:format>
        <dc:type
           rdf:resource="http://purl.org/dc/dcmitype/StillImage" />
        <dc:title />
      </cc:Work>
    </rdf:RDF>
  </metadata>
  <path
     id="path5343"
     d="m 640.2265,953.94477 49.98213,37.44694 49.98214,-37.44694"
     style="fill:none;fill-rule:evenodd;stroke:#7f2f21;stroke-width:16;stroke-linecap:butt;stroke-linejoin:miter;stroke-miterlimit:4;stroke-dasharray:none;stroke-opacity:1" />
  <g
     id="g854"
     transform="matrix(1.6414112,0,0,1.6414112,-811.71,-522.93433)">
    <rect
       ry="6.26366"
       y="422.30533"
       x="640.7691"
       height="357.02863"
       width="544.93848"
       id="rect4136"
       style="fill:url(#linearGradient4831);fill-opacity:1;stroke:#6d2b15;stroke-width:36.83032227;stroke-miterlimit:4;stroke-dasharray:none;stroke-opacity:1" />
    <path
       id="rect4138"
       d="m 562.04807,780.06244 h 702.38043 c 0.055,0 0.099,0.0442 0.099,0.0989 v 22.66864 c 0,6.86581 -9.1127,11.47823 -18.391,11.47823 H 575.42792 c -5.01484,0 -13.47869,-2.97638 -13.47869,-11.49878 v -22.64809 c 0,-0.0547 0.0442,-0.0989 0.0989,-0.0989 z"
       style="fill:#b24523;fill-opacity:1;stroke:#b24523;stroke-width:1.95814216;stroke-miterlimit:4;stroke-dasharray:none;stroke-opacity:1"
       inkscape:connector-curvature="0" />
    <rect
       ry="2.1875"
       y="794.70898"
       x="98.540504"
       height="4.375"
       width="8.375"
       id="rect4144"
       style="fill:#7ef694;fill-opacity:1;stroke:#b24523;stroke-width:1;stroke-miterlimit:4;stroke-dasharray:none;stroke-opacity:1;filter:url(#filter4711)"
       transform="matrix(1.7538248,0,0,1.7538248,418.93315,-600.41584)" />
  </g>
  <g
     aria-label="{λ}"
     style="font-style:normal;font-variant:normal;font-weight:normal;font-stretch:normal;font-size:64px;line-height:125%;font-family:'Fira Mono';-inkscape-font-specification:'Fira Mono';letter-spacing:0px;word-spacing:0px;fill:#ffffff;fill-opacity:1;stroke:none;stroke-width:1px;stroke-linecap:butt;stroke-linejoin:miter;stroke-opacity:1"
     id="text858"
     transform="matrix(1.3396243,0,0,1.3396243,-114.36537,-59.255989)">
    <path
       d="m 510.73082,397.30721 q 0,-6.048 -3.36,-9.888 -3.36,-3.936 -9.696,-3.936 v -10.272 q 6.336,0 9.696,-3.84 3.36,-3.84 3.36,-9.984 0,-4.8 -0.768,-9.504 -0.768,-4.704 -1.632,-9.408 -0.864,-4.704 -1.632,-9.504 -0.768,-4.8 -0.768,-9.792 0,-6.624 1.92,-12.192 2.016,-5.568 5.952,-9.6 4.032,-4.032 9.888,-6.24 5.952,-2.208 13.728,-2.208 h 5.184 v 7.584 q 0,1.92 -1.344,2.784 -1.344,0.864 -2.496,0.864 h -1.92 q -7.488,0 -11.712,4.896 -4.224,4.8 -4.224,13.056 0,5.376 0.672,10.368 0.672,4.992 1.536,9.792 0.864,4.704 1.536,9.408 0.672,4.704 0.672,9.504 0,3.648 -1.056,6.816 -1.056,3.072 -3.072,5.568 -1.92,2.4 -4.608,4.224 -2.592,1.728 -5.76,2.592 3.168,0.864 5.76,2.688 2.688,1.728 4.608,4.224 2.016,2.496 3.072,5.568 1.056,3.072 1.056,6.624 0,4.8 -0.672,9.504 -0.672,4.704 -1.536,9.504 -0.864,4.704 -1.536,9.696 -0.672,4.992 -0.672,10.368 0,8.352 4.224,13.152 4.224,4.8 11.712,4.8 h 1.92 q 1.152,0 2.496,0.864 1.344,0.864 1.344,2.784 v 7.68 h -5.184 q -7.776,0 -13.728,-2.304 -5.856,-2.208 -9.888,-6.24 -3.936,-4.032 -5.952,-9.6 -1.92,-5.568 -1.92,-12.192 0,-4.992 0.768,-9.696 0.768,-4.8 1.632,-9.504 0.864,-4.8 1.632,-9.504 0.768,-4.704 0.768,-9.504 z"
       style="font-style:normal;font-variant:normal;font-weight:normal;font-stretch:normal;font-size:192px;font-family:Lato;-inkscape-font-specification:Lato"
       id="path860"
       inkscape:connector-curvature="0" />
    <path
       d="m 590.84882,349.21121 -9.696,-26.88 q -1.056,-2.88 -2.304,-4.8 -1.248,-2.016 -2.976,-3.168 -1.728,-1.248 -4.128,-1.728 -2.4,-0.576 -5.76,-0.576 h -6.912 v -6.336 q 0,-1.344 0.48,-2.496 0.48,-1.152 1.632,-2.016 1.248,-0.864 3.36,-1.344 2.112,-0.576 5.376,-0.576 4.128,0 7.968,0.768 3.84,0.768 7.2,2.688 3.36,1.824 6.048,4.992 2.688,3.168 4.416,7.968 l 37.632,99.936 q 2.112,5.664 5.088,8.16 3.072,2.496 8.544,2.496 h 5.856 v 6.912 q 0,3.648 -2.208,4.8 -2.208,1.056 -6.528,1.056 -3.84,0 -7.584,-0.768 -3.648,-0.672 -7.008,-2.688 -3.264,-2.016 -6.048,-5.568 -2.784,-3.552 -4.8,-9.216 l -17.472,-45.024 q -0.768,-2.016 -1.248,-3.84 -0.48,-1.824 -0.672,-3.552 -0.48,1.728 -1.056,3.456 -0.48,1.728 -1.248,3.648 l -23.808,59.04 q -0.576,1.344 -1.92,2.496 -1.248,1.056 -3.456,1.056 h -14.496 z"
       style="font-style:normal;font-variant:normal;font-weight:normal;font-stretch:normal;font-size:192px;font-family:Lato;-inkscape-font-specification:Lato"
       id="path862"
       inkscape:connector-curvature="0" />
    <path
       d="m 686.10482,397.30721 q 0,4.8 0.768,9.504 0.768,4.704 1.632,9.504 0.864,4.704 1.632,9.504 0.768,4.704 0.768,9.696 0,6.624 -2.016,12.192 -1.92,5.568 -5.952,9.6 -3.936,4.032 -9.888,6.24 -5.856,2.304 -13.632,2.304 h -5.184 v -7.68 q 0,-1.92 1.344,-2.784 1.44,-0.864 2.496,-0.864 h 1.92 q 7.488,0 11.712,-4.8 4.224,-4.8 4.224,-13.152 0,-5.376 -0.672,-10.368 -0.672,-4.992 -1.536,-9.696 -0.864,-4.8 -1.536,-9.504 -0.672,-4.704 -0.672,-9.504 0,-3.552 1.056,-6.624 1.056,-3.072 2.976,-5.568 2.016,-2.496 4.608,-4.224 2.688,-1.824 5.856,-2.688 -3.168,-0.864 -5.856,-2.592 -2.592,-1.824 -4.608,-4.224 -1.92,-2.496 -2.976,-5.568 -1.056,-3.168 -1.056,-6.816 0,-4.8 0.672,-9.504 0.672,-4.704 1.536,-9.408 0.864,-4.8 1.536,-9.792 0.672,-4.992 0.672,-10.368 0,-8.256 -4.224,-13.056 -4.224,-4.896 -11.712,-4.896 h -1.92 q -1.056,0 -2.496,-0.864 -1.344,-0.864 -1.344,-2.784 v -7.584 h 5.184 q 7.776,0 13.632,2.208 5.952,2.208 9.888,6.24 4.032,4.032 5.952,9.6 2.016,5.568 2.016,12.192 0,4.992 -0.768,9.792 -0.768,4.8 -1.632,9.504 -0.864,4.704 -1.632,9.408 -0.768,4.704 -0.768,9.504 0,6.144 3.36,9.984 3.36,3.84 9.696,3.84 v 10.272 q -6.336,0 -9.696,3.936 -3.36,3.84 -3.36,9.888 z"
       style="font-style:normal;font-variant:normal;font-weight:normal;font-stretch:normal;font-size:192px;font-family:Lato;-inkscape-font-specification:Lato"
       id="path864"
       inkscape:connector-curvature="0" />
  </g>
</svg>
