<svg xmlns="http://www.w3.org/2000/svg" xmlns:xlink="http://www.w3.org/1999/xlink" width="1380.417" height="1001.388" viewBox="0 0 1380.4172 1001.3879"><defs><linearGradient id="b"><stop offset="0" stop-color="#1d1d1d"/><stop offset="1" stop-color="#404040"/></linearGradient><linearGradient id="a"><stop offset="0" stop-color="#1d1d1d"/><stop offset="1" stop-color="#1d1d1d" stop-opacity=".903"/></linearGradient><linearGradient gradientTransform="translate(-11)" gradientUnits="userSpaceOnUse" y2="766.475" x2="1191.639" y1="430.722" x1="660.011" id="c" xlink:href="#b"/><filter id="d" x="-.065" width="1.13" y="-.124" height="1.248" color-interpolation-filters="sRGB"><feGaussianBlur stdDeviation=".226"/></filter></defs><path id="field-design-arrow" class="field-arrow" d="M640.226 953.945l49.983 37.447 49.982-37.447" fill="none" stroke="#7f2f21" stroke-width="16"/><g transform="translate(-811.71 -522.934) scale(1.64141)"><rect ry="6.264" y="422.305" x="640.769" height="357.029" width="544.938" fill="url(#c)" stroke="#6d2b15" stroke-width="36.83"/><path d="M562.048 780.062h702.38c.055 0 .1.045.1.1v22.668c0 6.866-9.113 11.478-18.392 11.478H575.428c-5.015 0-13.479-2.976-13.479-11.499v-22.648c0-.054.044-.099.1-.099z" fill="#b24523" stroke="#b24523" stroke-width="1.958"/><rect ry="2.188" y="794.709" x="98.541" height="4.375" width="8.375" transform="matrix(1.75382 0 0 1.75382 418.933 -600.416)" fill="#7ef694" stroke="#b24523" filter="url(#d)"/></g><g aria-label="{λ}" style="line-height:125%;-inkscape-font-specification:'Fira Mono'" font-weight="400" font-size="192" font-family="Lato" letter-spacing="0" word-spacing="0" fill="#fff"><path d="M569.822 472.986q0-8.102-4.501-13.246-4.501-5.273-12.99-5.273v-13.76q8.489 0 12.99-5.144 4.501-5.144 4.501-13.375 0-6.43-1.029-12.732t-2.186-12.603q-1.157-6.302-2.186-12.732-1.03-6.43-1.03-13.118 0-8.873 2.573-16.332 2.7-7.46 7.973-12.86 5.402-5.402 13.247-8.36 7.973-2.958 18.39-2.958h6.945v10.16q0 2.572-1.8 3.73-1.801 1.157-3.345 1.157h-2.572q-10.03 0-15.69 6.559-5.658 6.43-5.658 17.49 0 7.202.9 13.89.9 6.686 2.058 13.117 1.157 6.301 2.058 12.603.9 6.301.9 12.732 0 4.887-1.415 9.13-1.414 4.116-4.115 7.46-2.572 3.215-6.173 5.658-3.472 2.315-7.716 3.472 4.244 1.158 7.716 3.601 3.6 2.315 6.173 5.659 2.7 3.344 4.115 7.459t1.415 8.874q0 6.43-.9 12.731-.9 6.302-2.058 12.732-1.157 6.302-2.058 12.99-.9 6.687-.9 13.888 0 11.189 5.659 17.62 5.658 6.43 15.69 6.43h2.571q1.544 0 3.344 1.157 1.8 1.157 1.8 3.73v10.288h-6.944q-10.417 0-18.39-3.087-7.845-2.958-13.247-8.36-5.272-5.4-7.973-12.86-2.572-7.459-2.572-16.332 0-6.688 1.029-12.99 1.029-6.43 2.186-12.731 1.157-6.43 2.186-12.732 1.029-6.301 1.029-12.732zM677.15 408.556l-12.989-36.01q-1.415-3.857-3.086-6.43-1.672-2.7-3.987-4.243-2.315-1.672-5.53-2.315-3.215-.772-7.716-.772h-9.26v-8.488q0-1.8.643-3.343.643-1.544 2.186-2.701 1.672-1.158 4.502-1.8 2.829-.772 7.201-.772 5.53 0 10.675 1.029 5.144 1.028 9.645 3.6 4.501 2.444 8.102 6.688 3.6 4.244 5.916 10.674l50.412 133.877q2.83 7.587 6.816 10.931 4.116 3.344 11.446 3.344h7.845v9.26q0 4.886-2.958 6.43-2.958 1.414-8.745 1.414-5.144 0-10.16-1.029-4.887-.9-9.388-3.6-4.372-2.701-8.102-7.46-3.73-4.758-6.43-12.346l-23.406-60.315q-1.029-2.7-1.672-5.144t-.9-4.758q-.643 2.314-1.415 4.63-.643 2.314-1.671 4.886l-31.894 79.092q-.772 1.8-2.572 3.343-1.672 1.415-4.63 1.415h-19.42zM804.757 472.986q0 6.43 1.03 12.732 1.028 6.302 2.185 12.732 1.158 6.302 2.187 12.732 1.029 6.301 1.029 12.989 0 8.873-2.701 16.332-2.572 7.46-7.974 12.86-5.272 5.402-13.246 8.36-7.845 3.087-18.262 3.087h-6.944V554.52q0-2.572 1.8-3.73 1.93-1.157 3.344-1.157h2.572q10.031 0 15.69-6.43 5.658-6.43 5.658-17.619 0-7.201-.9-13.889-.9-6.687-2.058-12.989-1.157-6.43-2.057-12.732-.9-6.301-.9-12.731 0-4.759 1.414-8.874 1.415-4.115 3.987-7.46 2.7-3.343 6.173-5.658 3.6-2.443 7.845-3.6-4.244-1.158-7.845-3.473-3.472-2.443-6.173-5.658-2.572-3.344-3.987-7.46-1.414-4.243-1.414-9.13 0-6.43.9-12.732t2.057-12.603q1.158-6.43 2.058-13.118.9-6.687.9-13.89 0-11.06-5.658-17.49-5.659-6.558-15.69-6.558h-2.572q-1.415 0-3.344-1.158-1.8-1.157-1.8-3.729v-10.16h6.944q10.417 0 18.262 2.958 7.974 2.958 13.246 8.36 5.402 5.4 7.974 12.86 2.7 7.459 2.7 16.332 0 6.688-1.028 13.118-1.03 6.43-2.187 12.732-1.157 6.301-2.186 12.603t-1.029 12.732q0 8.23 4.501 13.375 4.502 5.144 12.99 5.144v13.76q-8.488 0-12.99 5.273-4.5 5.144-4.5 13.246z" style="-inkscape-font-specification:Lato"/></g></svg>
