<svg xmlns="http://www.w3.org/2000/svg" width="48" height="48" viewBox="0 0 48 48">
    <g transform="translate(0 -1004.362)">
        <circle cx="24" cy="1028.362" r="19" fill="#57b4e6"/>
        <path d="M21.7 1035.894h3.022v3.78H21.7v-3.78zm2.933-2.188H21.79v-2.292q0-1.504.416-2.471.417-.968 1.757-2.248l1.34-1.325q.848-.788 1.22-1.488.387-.7.387-1.429 0-1.325-.982-2.143-.968-.82-2.575-.82-1.176 0-2.516.522-1.325.52-2.769 1.518v-2.798q1.4-.849 2.829-1.265 1.443-.417 2.976-.417 2.74 0 4.391 1.444 1.668 1.443 1.668 3.81 0 1.131-.536 2.158-.536 1.013-1.876 2.293l-1.31 1.28q-.7.7-.997 1.101-.283.387-.402.76-.09.312-.134.758-.044.447-.044 1.221v1.83z" fill="#f4e9c4" />
    </g>
</svg>
