<?xml version="1.0" encoding="UTF-8" standalone="no"?>
<svg
   xmlns:dc="http://purl.org/dc/elements/1.1/"
   xmlns:cc="http://creativecommons.org/ns#"
   xmlns:rdf="http://www.w3.org/1999/02/22-rdf-syntax-ns#"
   xmlns:svg="http://www.w3.org/2000/svg"
   xmlns="http://www.w3.org/2000/svg"
   width="48"
   height="48"
   viewBox="0 0 48 48"
   id="svg6780"
   version="1.1">
  <defs
     id="defs6782" />
  <metadata
     id="metadata6785">
    <rdf:RDF>
      <cc:Work
         rdf:about="">
        <dc:format>image/svg+xml</dc:format>
        <dc:type
           rdf:resource="http://purl.org/dc/dcmitype/StillImage" />
        <dc:title></dc:title>
      </cc:Work>
    </rdf:RDF>
  </metadata>
  <g
     id="layer1"
     transform="translate(0,-1004.3622)">
    <circle
       style="opacity:1;fill:#57b4e6;fill-opacity:1;stroke:none;stroke-width:10;stroke-miterlimit:4;stroke-dasharray:none;stroke-dashoffset:94;stroke-opacity:1"
       id="path6926"
       cx="24"
       cy="1028.3622"
       r="19" />
    <g
       transform="matrix(0.80220314,0,0,0.80220314,-12.494461,204.5001)"
       style="font-style:normal;font-weight:normal;font-size:32.9246521px;line-height:120.00000477%;font-family:sans-serif;letter-spacing:0px;word-spacing:0px;fill:#f4e9c4;fill-opacity:1;stroke:none;stroke-width:1px;stroke-linecap:butt;stroke-linejoin:miter;stroke-opacity:1"
       id="text6964" />
    <text
       id="text7610"
       y="1043.3622"
       x="16.611017"
       style="font-style:normal;font-weight:normal;font-size:40px;line-height:125%;font-family:sans-serif;letter-spacing:0px;word-spacing:0px;fill:#000000;fill-opacity:1;stroke:none;stroke-width:1px;stroke-linecap:butt;stroke-linejoin:miter;stroke-opacity:1"
       xml:space="preserve"><tspan
         y="1043.3622"
         x="16.611017"
         id="tspan7612"></tspan></text>
    <g
       id="text7728"
       style="font-style:normal;font-weight:normal;font-size:30.48381042px;line-height:125%;font-family:sans-serif;letter-spacing:0px;word-spacing:0px;fill:#000000;fill-opacity:1;stroke:none;stroke-width:1px;stroke-linecap:butt;stroke-linejoin:miter;stroke-opacity:1">
      <path
         id="path7733"
         style="fill:#f4e9c4;fill-opacity:1"
         d="m 21.700318,1035.8939 3.021589,0 0,3.7807 -3.021589,0 0,-3.7807 z m 2.932281,-2.1881 -2.842973,0 0,-2.2922 q 0,-1.5034 0.416771,-2.4709 0.416771,-0.9675 1.756392,-2.2476 l 1.33962,-1.3247 q 0.848427,-0.7889 1.220543,-1.4885 0.387002,-0.6996 0.387002,-1.4289 0,-1.3247 -0.982389,-2.1434 -0.967503,-0.8187 -2.575048,-0.8187 -1.175889,0 -2.51551,0.521 -1.324736,0.521 -2.768549,1.5182 l 0,-2.7983 q 1.399159,-0.8484 2.828088,-1.2652 1.443813,-0.4167 2.976935,-0.4167 2.738779,0 4.390978,1.4438 1.667084,1.4438 1.667084,3.8104 0,1.1313 -0.535849,2.1583 -0.535848,1.0122 -1.875469,2.2923 l -1.309851,1.28 q -0.699579,0.6996 -0.997273,1.1015 -0.282809,0.387 -0.401886,0.7591 -0.08931,0.3126 -0.133962,0.7591 -0.04465,0.4466 -0.04465,1.2206 l 0,1.8308 z" />
    </g>
  </g>
</svg>
