<?xml version="1.0" encoding="UTF-8" standalone="no"?>
<svg
   xmlns:dc="http://purl.org/dc/elements/1.1/"
   xmlns:cc="http://creativecommons.org/ns#"
   xmlns:rdf="http://www.w3.org/1999/02/22-rdf-syntax-ns#"
   xmlns:svg="http://www.w3.org/2000/svg"
   xmlns="http://www.w3.org/2000/svg"
   version="1.1"
   id="svg6780"
   viewBox="0 0 48 48"
   height="48"
   width="48">
  <defs
     id="defs6782" />
  <metadata
     id="metadata6785">
    <rdf:RDF>
      <cc:Work
         rdf:about="">
        <dc:format>image/svg+xml</dc:format>
        <dc:type
           rdf:resource="http://purl.org/dc/dcmitype/StillImage" />
        <dc:title></dc:title>
      </cc:Work>
    </rdf:RDF>
  </metadata>
  <g
     transform="translate(0,-1004.3622)"
     id="layer1">
    <path
       id="path6790"
       d="m 23.998521,1037.376 17.132634,0 c 1.779189,0 1.779189,-18.0276 0,-18.0276 l -7.347096,0 c 0,9.0138 0,9.0138 -9.785538,9.0138 -9.785538,0 -9.785538,0 -9.785538,9.0138 l 0,7.0108 c 0,3.0046 20.46067,3.0046 20.46067,0 l 0,-7.0108"
       style="fill:#ffde57;fill-rule:evenodd;stroke:#000000;stroke-width:0.94390684px;stroke-linecap:butt;stroke-linejoin:miter;stroke-opacity:1;fill-opacity:1" />
    <circle
       r="1.5"
       cy="1041.8622"
       cx="31.5"
       id="path6849"
       style="opacity:1;fill:#ffffff;fill-opacity:1;stroke:none;stroke-width:10;stroke-miterlimit:4;stroke-dasharray:none;stroke-dashoffset:94;stroke-opacity:1" />
    <path
       id="path6790-7"
       d="m 23.938935,1019.2823 -17.1326342,0 c -1.779189,0 -1.779189,18.0276 0,18.0276 l 7.3470962,0 c 0,-9.0138 0,-9.0138 9.785538,-9.0138 9.785538,0 9.785538,0 9.785538,-9.0138 l 0,-7.0108 c 0,-3.0046 -20.46067,-3.0046 -20.46067,0 l 0,7.0108"
       style="fill:#326c9c;fill-rule:evenodd;stroke:#000000;stroke-width:0.94390684px;stroke-linecap:butt;stroke-linejoin:miter;stroke-opacity:1;fill-opacity:1" />
    <circle
       transform="scale(-1,-1)"
       r="1.5"
       cy="-1014.7962"
       cx="-16.437456"
       id="path6849-9"
       style="opacity:1;fill:#ffffff;fill-opacity:1;stroke:none;stroke-width:10;stroke-miterlimit:4;stroke-dasharray:none;stroke-dashoffset:94;stroke-opacity:1" />
  </g>
</svg>
