<svg xmlns="http://www.w3.org/2000/svg" width="48" height="48" viewBox="0 0 48 48">
    <g transform="translate(0 -1004.362)">
        <ellipse cx="24" cy="1025.706" rx="22.344" ry="15.259" fill="#b24523"/>
        <ellipse cx="25.897" cy="1026.42" rx="18.348" ry="12.241" fill="#f4e9c4"/>
        <g style="line-height:125%">
            <path d="M29.931 1029.369c1.576 0 2.702-.279 3.38-.836.69-.557 1.034-.804 1.034-2.08 0-1.262-.345-1.363-1.035-1.908-.677-.545-1.803-.817-3.379-.817h-3.164v5.64zm-3.164 6.414v10.494h-7.52v-27.731h11.485c3.841 0 6.654.613 8.438 1.839 1.797 1.226 2.695 3.163 2.695 5.813 0 1.833-.469 3.338-1.406 4.514-.925 1.176-3.262 2.311-5.137 2.868 1.029.223 2.706.775 3.513 1.568.82.78 1.826 1.656 2.659 3.254l4.082 7.875h-8.008l-3.555-6.89c-.716-1.388-1.445-2.335-2.187-2.843-.73-.507-1.706-.761-2.93-.761z" style="-inkscape-font-specification:'sans-serif Bold'" font-weight="700" fill="green" font-size="39.008" font-family="sans-serif" letter-spacing="0" word-spacing="0"/>
        </g>
    </g>
</svg>
