<?xml version="1.0" encoding="UTF-8" standalone="no"?>
<svg
   xmlns:dc="http://purl.org/dc/elements/1.1/"
   xmlns:cc="http://creativecommons.org/ns#"
   xmlns:rdf="http://www.w3.org/1999/02/22-rdf-syntax-ns#"
   xmlns:svg="http://www.w3.org/2000/svg"
   xmlns="http://www.w3.org/2000/svg"
   width="48"
   height="48"
   viewBox="0 0 48 48"
   id="svg6780"
   version="1.1">
  <defs
     id="defs6782" />
  <metadata
     id="metadata6785">
    <rdf:RDF>
      <cc:Work
         rdf:about="">
        <dc:format>image/svg+xml</dc:format>
        <dc:type
           rdf:resource="http://purl.org/dc/dcmitype/StillImage" />
        <dc:title></dc:title>
      </cc:Work>
    </rdf:RDF>
  </metadata>
  <g
     id="layer1"
     transform="translate(0,-1004.3622)">
    <circle
       style="opacity:1;fill:#ffffff;fill-opacity:1;stroke:none;stroke-width:10;stroke-miterlimit:4;stroke-dasharray:none;stroke-dashoffset:94;stroke-opacity:1"
       id="path6849"
       cx="31.5"
       cy="1041.8622"
       r="1.5" />
    <circle
       style="opacity:1;fill:#ffffff;fill-opacity:1;stroke:none;stroke-width:10;stroke-miterlimit:4;stroke-dasharray:none;stroke-dashoffset:94;stroke-opacity:1"
       id="path6849-9"
       cx="-16.437456"
       cy="-1014.7962"
       r="1.5"
       transform="scale(-1,-1)" />
    <circle
       style="opacity:1;fill:#326c9c;fill-opacity:1;stroke:none;stroke-width:10;stroke-miterlimit:4;stroke-dasharray:none;stroke-dashoffset:94;stroke-opacity:1"
       id="path6926"
       cx="24"
       cy="1028.3622"
       r="19" />
    <g
       transform="matrix(0.80220314,0,0,0.80220314,-12.494461,204.5001)"
       style="font-style:normal;font-weight:normal;font-size:32.9246521px;line-height:120.00000477%;font-family:sans-serif;letter-spacing:0px;word-spacing:0px;fill:#f4e9c4;fill-opacity:1;stroke:none;stroke-width:1px;stroke-linecap:butt;stroke-linejoin:miter;stroke-opacity:1"
       id="text6964">
      <path
         d="m 36.216454,1017.2896 0,2.3753 q -1.386597,-0.6632 -2.616448,-0.9887 -1.229852,-0.3256 -2.375302,-0.3256 -1.989466,0 -3.074629,0.7717 -1.073105,0.7717 -1.073105,2.1945 0,1.1936 0.711384,1.8086 0.723442,0.6028 2.724965,0.9766 l 1.470999,0.3014 q 2.724965,0.5185 4.015104,1.8328 1.302195,1.3022 1.302195,3.4966 0,2.6165 -1.760375,3.9669 -1.748319,1.3504 -5.136439,1.3504 -1.278081,0 -2.724965,-0.2894 -1.434827,-0.2894 -2.97817,-0.856 l 0,-2.508 q 1.483056,0.832 2.905826,1.254 1.422769,0.422 2.797309,0.422 2.085925,0 3.219317,-0.8199 1.133393,-0.8199 1.133393,-2.3391 0,-1.3263 -0.819901,-2.0739 -0.807844,-0.7476 -2.664678,-1.1213 l -1.483057,-0.2894 q -2.724965,-0.5426 -3.942759,-1.7001 -1.217794,-1.1575 -1.217794,-3.2193 0,-2.3874 1.675974,-3.7619 1.688032,-1.3746 4.642087,-1.3746 1.266023,0 2.580276,0.2291 1.314253,0.2291 2.688793,0.6873 z"
         style="font-size:24.69348907px;line-height:120.00000477%;fill:#f4e9c4;fill-opacity:1"
         id="path6969" />
    </g>
    <g
       id="text7604"
       style="font-style:normal;font-weight:normal;font-size:19.57167053px;line-height:125%;font-family:sans-serif;letter-spacing:0px;word-spacing:0px;fill:#f4e9c4;fill-opacity:1;stroke:none;stroke-width:1px;stroke-linecap:butt;stroke-linejoin:miter;stroke-opacity:1">
      <path
         id="path7636"
         style=""
         d="m 24.638831,1021.4051 q -2.102425,0 -3.344768,1.5672 -1.232786,1.5673 -1.232786,4.2718 0,2.6949 1.232786,4.2622 1.242343,1.5672 3.344768,1.5672 2.102426,0 3.325655,-1.5672 1.232786,-1.5673 1.232786,-4.2622 0,-2.7045 -1.232786,-4.2718 -1.223229,-1.5672 -3.325655,-1.5672 z m 2.704484,12.7005 2.542024,2.781 -2.331781,0 -2.111982,-2.284 q -0.315364,0.019 -0.487381,0.029 -0.16246,0.01 -0.315364,0.01 -3.010291,0 -4.816466,-2.0069 -1.796618,-2.0164 -1.796618,-5.3898 0,-3.383 1.796618,-5.3899 1.806175,-2.0164 4.816466,-2.0164 3.000735,0 4.797353,2.0164 1.796618,2.0069 1.796618,5.3899 0,2.4847 -1.00343,4.2526 -0.993874,1.768 -2.886057,2.6089 z" />
    </g>
    <text
       id="text7610"
       y="1043.3622"
       x="16.611017"
       style="font-style:normal;font-weight:normal;font-size:40px;line-height:125%;font-family:sans-serif;letter-spacing:0px;word-spacing:0px;fill:#000000;fill-opacity:1;stroke:none;stroke-width:1px;stroke-linecap:butt;stroke-linejoin:miter;stroke-opacity:1"
       xml:space="preserve"><tspan
         y="1043.3622"
         x="16.611017"
         id="tspan7612"></tspan></text>
    <g
       id="text7604-0"
       style="font-style:normal;font-weight:normal;font-size:19.57167053px;line-height:125%;font-family:sans-serif;letter-spacing:0px;word-spacing:0px;fill:#f4e9c4;fill-opacity:1;stroke:none;stroke-width:1px;stroke-linecap:butt;stroke-linejoin:miter;stroke-opacity:1">
      <path
         id="path7633"
         style=""
         d="m 32.154396,1019.8378 1.930409,0 0,12.6432 6.947561,0 0,1.6246 -8.87797,0 0,-14.2678 z" />
    </g>
  </g>
</svg>
