<svg xmlns="http://www.w3.org/2000/svg" width="48" height="48" viewBox="0 0 48 48">
    <g transform="translate(0 -1004.362)">
        <circle cx="24" cy="1028.362" r="19" fill="#326c9c"/>
        <path d="M16.558 1020.573v1.905q-1.112-.532-2.098-.793-.987-.26-1.906-.26-1.596 0-2.466.618-.861.62-.861 1.76 0 .958.57 1.452.58.483 2.186.783l1.18.242q2.186.416 3.221 1.47 1.045 1.045 1.045 2.805 0 2.099-1.412 3.182-1.403 1.084-4.12 1.084-1.026 0-2.187-.233-1.15-.232-2.389-.686v-2.012q1.19.667 2.331 1.006 1.142.338 2.244.338 1.674 0 2.583-.657.91-.658.91-1.877 0-1.064-.659-1.664-.648-.6-2.137-.9l-1.19-.231q-2.186-.436-3.163-1.364-.977-.929-.977-2.583 0-1.915 1.345-3.017 1.354-1.103 3.724-1.103 1.015 0 2.07.184 1.054.183 2.156.551z" style="line-height:120.00000477%" font-size="24.693" font-weight="400" font-family="sans-serif" letter-spacing="0" word-spacing="0" fill="#f4e9c4"/>
        <g style="line-height:125%">
            <path d="M24.639 1021.405q-2.103 0-3.345 1.567-1.233 1.568-1.233 4.272 0 2.695 1.233 4.262 1.242 1.567 3.345 1.567 2.102 0 3.325-1.567 1.233-1.567 1.233-4.262 0-2.704-1.233-4.272-1.223-1.567-3.325-1.567zm2.704 12.7l2.542 2.782h-2.331l-2.112-2.284-.488.029q-.162.01-.315.01-3.01 0-4.817-2.007-1.796-2.017-1.796-5.39 0-3.383 1.796-5.39 1.807-2.016 4.817-2.016 3 0 4.797 2.016 1.797 2.007 1.797 5.39 0 2.485-1.004 4.252-.994 1.768-2.886 2.61z" font-weight="400" font-size="19.572" font-family="sans-serif" letter-spacing="0" word-spacing="0" fill="#f4e9c4"/>
        </g>
        <text y="1043.362" x="16.611" style="line-height:125%" font-weight="400" font-size="40" font-family="sans-serif" letter-spacing="0" word-spacing="0"/>
        <g style="line-height:125%">
            <path d="M32.154 1019.838h1.93v12.643h6.948v1.625h-8.878v-14.268z" font-weight="400" font-size="19.572" font-family="sans-serif" letter-spacing="0" word-spacing="0" fill="#f4e9c4"/>
        </g>
    </g>
</svg>
