<svg xmlns="http://www.w3.org/2000/svg" height="1001.388" width="1380.417" viewBox="0 0 1380.4172 1001.3879">
    <g transform="translate(-109.791 -152.047)">
        <rect ry="10" y="154.547" x="112.542" height="895.63" width="1374.916" fill="#fff"/>
        <path fill="#57b4e6" d="M112.632 221.512H1489.47v79.802H112.632z"/>
        <path fill="#debfbb" d="M113.819 156.584h1372.716v63.409H113.819z"/>
        <path d="M110.714 220.362h1378.523" fill="none" stroke="#7f2f21" stroke-width="4.647"/>
        <path d="M132.49 178.032a14.722 14.722 0 0 1 20.55-3.325 14.722 14.722 0 0 1 3.332 20.55 14.722 14.722 0 0 1-20.548 3.337 14.722 14.722 0 0 1-3.344-20.547" fill="#ff5237" stroke="#7f2f21" stroke-width="4.122"/>
        <path d="M179.633 178.033a14.722 14.722 0 0 1 20.55-3.325 14.722 14.722 0 0 1 3.332 20.549 14.722 14.722 0 0 1-20.548 3.337 14.722 14.722 0 0 1-3.344-20.547" fill="#ffcb37" stroke="#7f2f21" stroke-width="4.122"/>
        <path d="M226.775 178.033a14.722 14.722 0 0 1 20.55-3.325 14.722 14.722 0 0 1 3.331 20.549 14.722 14.722 0 0 1-20.548 3.337 14.722 14.722 0 0 1-3.343-20.547" fill="#96ff3e" stroke="#7f2f21" stroke-width="4.122"/>
        <path fill="#fbf6f5" stroke="#7f2f21" stroke-width="4.963" d="M425.72 166.44h748.56v41.958H425.72z"/>
        <path fill="#57b4e6" d="M1161.883 276.565h284.863v67.68h-284.863z"/>
        <path fill="none" stroke="#ececec" stroke-width="8" d="M247.551 402.834h333.35v333.35h-333.35zM633.325 402.834h333.35v333.35h-333.35zM1020.285 404.02h330.979v564.324h-330.979z"/>
        <path d="M319.209 500.935a117.178 117.178 0 0 1 163.562-26.463 117.178 117.178 0 0 1 26.513 163.554 117.178 117.178 0 0 1-163.546 26.562 117.178 117.178 0 0 1-26.612-163.538M704.983 500.935a117.178 117.178 0 0 1 163.562-26.464 117.178 117.178 0 0 1 26.513 163.555 117.178 117.178 0 0 1-163.546 26.562 117.178 117.178 0 0 1-26.611-163.538" fill="none" stroke="#ececec" stroke-width="30"/>
        <path d="M413.123 452.337a117.178 117.178 0 0 1 113.282 83.312 117.178 117.178 0 0 1-48.27 132.075 117.178 117.178 0 0 1-140.306-9.366 117.178 117.178 0 0 1-30.287-137.318" fill="none" stroke="#57b4e6" stroke-width="30"/>
        <path d="M797.821 452.352a117.178 117.178 0 0 1 87.443 36.78 117.178 117.178 0 0 1 31.561 89.458" fill="none" stroke="#ff5237" stroke-width="30"/>
        <path fill="#57b4e6" d="M1043.343 448.504h284.863v27.274h-284.863z"/>
        <path fill="#ececec" d="M1043.343 507.182h284.863v27.274h-284.863z"/>
        <path fill="#57b4e6" d="M1043.343 507.182h178.797v27.274h-178.797z"/>
        <path d="M1053.39 652.874a38.305 38.305 0 0 1 53.469-8.65 38.305 38.305 0 0 1 8.667 53.465 38.305 38.305 0 0 1-53.464 8.683 38.305 38.305 0 0 1-8.699-53.46M1053.39 764.9a38.305 38.305 0 0 1 53.469-8.651 38.305 38.305 0 0 1 8.667 53.466 38.305 38.305 0 0 1-53.464 8.683 38.305 38.305 0 0 1-8.699-53.461M1053.39 876.057a38.305 38.305 0 0 1 53.469-8.651 38.305 38.305 0 0 1 8.667 53.466 38.305 38.305 0 0 1-53.464 8.683 38.305 38.305 0 0 1-8.699-53.46" fill="none" stroke="green" stroke-width="5.632"/>
        <path fill="none" stroke="#ececec" stroke-width="8" d="M247.256 788.377h718.042v180.218H247.256z"/>
        <path fill="#ececec" d="M1149.298 661.654h164.655v27.274h-164.655zM1149.298 773.679h164.655v27.274h-164.655zM1149.298 884.837h164.655v27.274h-164.655zM281.958 820.154h164.655v27.274H281.958zM281.958 874.439h641.083v27.274H281.958z"/>
        <rect ry="10.004" y="154.369" x="112.113" height="895.987" width="1375.774" fill="none" stroke="#7f2f21" stroke-width="4.644"/>
    </g>
    <path d="M640.226 953.945l49.983 37.447 49.982-37.447" fill="none" stroke="#7f2f21" stroke-width="16"/>
</svg>
