<?xml version="1.0" encoding="UTF-8" standalone="no"?>
<svg
   xmlns:dc="http://purl.org/dc/elements/1.1/"
   xmlns:cc="http://creativecommons.org/ns#"
   xmlns:rdf="http://www.w3.org/1999/02/22-rdf-syntax-ns#"
   xmlns:svg="http://www.w3.org/2000/svg"
   xmlns="http://www.w3.org/2000/svg"
   xmlns:sodipodi="http://sodipodi.sourceforge.net/DTD/sodipodi-0.dtd"
   xmlns:inkscape="http://www.inkscape.org/namespaces/inkscape"
   version="1.1"
   id="svg2"
   viewBox="0 0 1380.4172 1001.3879"
   height="1001.3879"
   width="1380.4172"
   inkscape:version="0.91 r13725"
   sodipodi:docname="web-apps.svg">
  <sodipodi:namedview
     pagecolor="#ffffff"
     bordercolor="#666666"
     borderopacity="1"
     objecttolerance="10"
     gridtolerance="10"
     guidetolerance="10"
     inkscape:pageopacity="0"
     inkscape:pageshadow="2"
     inkscape:window-width="3200"
     inkscape:window-height="1689"
     id="namedview5314"
     showgrid="false"
     inkscape:snap-bbox="false"
     inkscape:snap-to-guides="true"
     showguides="true"
     inkscape:guide-bbox="true"
     inkscape:zoom="1.1140912"
     inkscape:cx="537.37479"
     inkscape:cy="380.15883"
     inkscape:window-x="0"
     inkscape:window-y="55"
     inkscape:window-maximized="1"
     inkscape:current-layer="svg2"
     fit-margin-top="0"
     fit-margin-left="0"
     fit-margin-right="0"
     fit-margin-bottom="0" />
  <defs
     id="defs4" />
  <metadata
     id="metadata7">
    <rdf:RDF>
      <cc:Work
         rdf:about="">
        <dc:format>image/svg+xml</dc:format>
        <dc:type
           rdf:resource="http://purl.org/dc/dcmitype/StillImage" />
        <dc:title></dc:title>
      </cc:Work>
    </rdf:RDF>
  </metadata>
  <g
     transform="translate(-109.79137,-152.04696)"
     id="layer1">
    <rect
       ry="10"
       y="154.54695"
       x="112.54189"
       height="895.63049"
       width="1374.9163"
       id="rect4138"
       style="opacity:1;fill:#ffffff;fill-opacity:1;stroke:none;stroke-width:5;stroke-miterlimit:4;stroke-dasharray:none;stroke-opacity:1" />
    <rect
       y="221.51172"
       x="112.63201"
       height="79.802055"
       width="1376.838"
       id="rect4798"
       style="opacity:1;fill:#57b4e6;fill-opacity:1;stroke:none;stroke-width:5;stroke-miterlimit:4;stroke-dasharray:none;stroke-opacity:1" />
    <rect
       y="156.5844"
       x="113.81888"
       height="63.40873"
       width="1372.7157"
       id="rect4726"
       style="opacity:1;fill:#debfbb;fill-opacity:1;stroke:none;stroke-width:4.89911652;stroke-miterlimit:4;stroke-dasharray:none;stroke-opacity:1" />
    <path
       id="path4705"
       d="m 110.71429,220.36219 1378.52311,0"
       style="fill:none;fill-rule:evenodd;stroke:#7f2f21;stroke-width:4.64735699;stroke-linecap:butt;stroke-linejoin:miter;stroke-miterlimit:4;stroke-dasharray:none;stroke-opacity:1"
       inkscape:connector-curvature="0" />
    <path
       d="m 132.49052,178.03221 a 14.722342,14.722342 0 0 1 20.55016,-3.32495 14.722342,14.722342 0 0 1 3.33113,20.54915 14.722342,14.722342 0 0 1 -20.54815,3.33732 14.722342,14.722342 0 0 1 -3.34351,-20.54714"
       id="path4730"
       style="opacity:1;fill:#ff5237;fill-opacity:1;stroke:#7f2f21;stroke-width:4.12225533;stroke-miterlimit:4;stroke-dasharray:none;stroke-opacity:1"
       inkscape:connector-curvature="0" />
    <path
       d="m 179.63337,178.03256 a 14.722342,14.722342 0 0 1 20.55016,-3.32495 14.722342,14.722342 0 0 1 3.33113,20.54915 14.722342,14.722342 0 0 1 -20.54815,3.33732 14.722342,14.722342 0 0 1 -3.3435,-20.54714"
       id="path4730-6"
       style="opacity:1;fill:#ffcb37;fill-opacity:1;stroke:#7f2f21;stroke-width:4.12225533;stroke-miterlimit:4;stroke-dasharray:none;stroke-opacity:1"
       inkscape:connector-curvature="0" />
    <path
       d="m 226.77488,178.03256 a 14.722342,14.722342 0 0 1 20.55016,-3.32495 14.722342,14.722342 0 0 1 3.33113,20.54915 14.722342,14.722342 0 0 1 -20.54815,3.33732 14.722342,14.722342 0 0 1 -3.3435,-20.54714"
       id="path4730-6-7"
       style="opacity:1;fill:#96ff3e;fill-opacity:1;stroke:#7f2f21;stroke-width:4.12225533;stroke-miterlimit:4;stroke-dasharray:none;stroke-opacity:1"
       inkscape:connector-curvature="0" />
    <rect
       y="166.43997"
       x="425.72006"
       height="41.958195"
       width="748.55988"
       id="rect4777"
       style="opacity:1;fill:#fbf6f5;fill-opacity:1;stroke:#7f2f21;stroke-width:4.96313572;stroke-miterlimit:4;stroke-dasharray:none;stroke-opacity:1" />
    <rect
       y="276.56503"
       x="1161.8835"
       height="67.680222"
       width="284.86301"
       id="rect4800"
       style="opacity:1;fill:#57b4e6;fill-opacity:1;stroke:none;stroke-width:5;stroke-miterlimit:4;stroke-dasharray:none;stroke-opacity:1" />
    <rect
       y="402.83411"
       x="247.55057"
       height="333.35034"
       width="333.35034"
       id="rect4804"
       style="opacity:1;fill:none;fill-opacity:1;stroke:#ececec;stroke-width:8;stroke-miterlimit:4;stroke-dasharray:none;stroke-opacity:1" />
    <rect
       y="402.83386"
       x="633.32483"
       height="333.35034"
       width="333.35034"
       id="rect4804-5"
       style="opacity:1;fill:none;fill-opacity:1;stroke:#ececec;stroke-width:8;stroke-miterlimit:4;stroke-dasharray:none;stroke-opacity:1" />
    <rect
       y="404.01974"
       x="1020.285"
       height="564.32379"
       width="330.97858"
       id="rect4804-5-3"
       style="opacity:1;fill:none;fill-opacity:1;stroke:#ececec;stroke-width:8;stroke-miterlimit:4;stroke-dasharray:none;stroke-opacity:1" />
    <path
       d="M 319.20875,500.93537 A 117.1777,117.1777 0 0 1 482.77104,474.47152 117.1777,117.1777 0 0 1 509.28412,638.02584 117.1777,117.1777 0 0 1 345.7378,664.58817 117.1777,117.1777 0 0 1 319.12623,501.04985"
       id="path4836"
       style="opacity:1;fill:none;fill-opacity:1;stroke:#ececec;stroke-width:30;stroke-miterlimit:4;stroke-dasharray:none;stroke-opacity:1"
       inkscape:connector-curvature="0" />
    <path
       d="M 704.98301,500.93512 A 117.1777,117.1777 0 0 1 868.5453,474.47128 117.1777,117.1777 0 0 1 895.05839,638.02559 117.1777,117.1777 0 0 1 731.51206,664.58792 117.1777,117.1777 0 0 1 704.9005,501.0496"
       id="path4836-5"
       style="opacity:1;fill:none;fill-opacity:1;stroke:#ececec;stroke-width:30;stroke-miterlimit:4;stroke-dasharray:none;stroke-opacity:1"
       inkscape:connector-curvature="0" />
    <path
       d="m 413.12338,452.33671 a 117.1777,117.1777 0 0 1 113.28134,83.31246 117.1777,117.1777 0 0 1 -48.26894,132.07475 117.1777,117.1777 0 0 1 -140.30651,-9.36549 117.1777,117.1777 0 0 1 -30.2869,-137.31836"
       id="path4836-6"
       style="opacity:1;fill:none;fill-opacity:1;stroke:#57b4e6;stroke-width:30;stroke-miterlimit:4;stroke-dasharray:none;stroke-opacity:1"
       inkscape:connector-curvature="0" />
    <path
       d="m 797.82133,452.35153 a 117.1777,117.1777 0 0 1 87.44311,36.7796 117.1777,117.1777 0 0 1 31.56088,89.4592"
       id="path4836-5-2"
       style="opacity:1;fill:none;fill-opacity:1;stroke:#ff5237;stroke-width:30;stroke-miterlimit:4;stroke-dasharray:none;stroke-opacity:1"
       inkscape:connector-curvature="0" />
    <rect
       y="448.50397"
       x="1043.3428"
       height="27.274"
       width="284.86301"
       id="rect4800-9"
       style="opacity:1;fill:#57b4e6;fill-opacity:1;stroke:none;stroke-width:5;stroke-miterlimit:4;stroke-dasharray:none;stroke-opacity:1" />
    <rect
       y="507.18195"
       x="1043.3428"
       height="27.274"
       width="284.86301"
       id="rect4800-9-1"
       style="opacity:1;fill:#ececec;fill-opacity:1;stroke:none;stroke-width:5;stroke-miterlimit:4;stroke-dasharray:none;stroke-opacity:1" />
    <rect
       y="507.18195"
       x="1043.3428"
       height="27.274"
       width="178.79698"
       id="rect4800-9-2"
       style="opacity:1;fill:#57b4e6;fill-opacity:1;stroke:none;stroke-width:5;stroke-miterlimit:4;stroke-dasharray:none;stroke-opacity:1" />
    <path
       d="m 1053.3902,652.87426 a 38.305431,38.305431 0 0 1 53.4686,-8.65104 38.305431,38.305431 0 0 1 8.6671,53.46596 38.305431,38.305431 0 0 1 -53.4634,8.68324 38.305431,38.305431 0 0 1 -8.6993,-53.46074"
       id="path4959"
       style="opacity:1;fill:none;fill-opacity:1;stroke:#008000;stroke-width:5.63174915;stroke-miterlimit:4;stroke-dasharray:none;stroke-opacity:1"
       inkscape:connector-curvature="0" />
    <path
       d="m 1053.3902,764.89959 a 38.305431,38.305431 0 0 1 53.4686,-8.65104 38.305431,38.305431 0 0 1 8.6671,53.46596 38.305431,38.305431 0 0 1 -53.4634,8.68324 38.305431,38.305431 0 0 1 -8.6993,-53.46074"
       id="path4959-7"
       style="opacity:1;fill:none;fill-opacity:1;stroke:#008000;stroke-width:5.63174915;stroke-miterlimit:4;stroke-dasharray:none;stroke-opacity:1"
       inkscape:connector-curvature="0" />
    <path
       d="m 1053.3902,876.057 a 38.305431,38.305431 0 0 1 53.4686,-8.65104 38.305431,38.305431 0 0 1 8.6671,53.46596 38.305431,38.305431 0 0 1 -53.4634,8.68324 38.305431,38.305431 0 0 1 -8.6993,-53.46074"
       id="path4959-7-0"
       style="opacity:1;fill:none;fill-opacity:1;stroke:#008000;stroke-width:5.63174915;stroke-miterlimit:4;stroke-dasharray:none;stroke-opacity:1"
       inkscape:connector-curvature="0" />
    <rect
       y="788.3772"
       x="247.25644"
       height="180.21788"
       width="718.04248"
       id="rect4804-5-9"
       style="opacity:1;fill:none;fill-opacity:1;stroke:#ececec;stroke-width:8;stroke-miterlimit:4;stroke-dasharray:none;stroke-opacity:1" />
    <rect
       y="661.65411"
       x="1149.2981"
       height="27.274"
       width="164.65485"
       id="rect4800-9-1-3"
       style="opacity:1;fill:#ececec;fill-opacity:1;stroke:none;stroke-width:5;stroke-miterlimit:4;stroke-dasharray:none;stroke-opacity:1" />
    <rect
       y="773.67944"
       x="1149.2981"
       height="27.274"
       width="164.65485"
       id="rect4800-9-1-3-6"
       style="opacity:1;fill:#ececec;fill-opacity:1;stroke:none;stroke-width:5;stroke-miterlimit:4;stroke-dasharray:none;stroke-opacity:1" />
    <rect
       y="884.83685"
       x="1149.2981"
       height="27.274"
       width="164.65485"
       id="rect4800-9-1-3-6-0"
       style="opacity:1;fill:#ececec;fill-opacity:1;stroke:none;stroke-width:5;stroke-miterlimit:4;stroke-dasharray:none;stroke-opacity:1" />
    <rect
       y="820.15375"
       x="281.95834"
       height="27.274"
       width="164.65485"
       id="rect4800-9-1-3-62"
       style="opacity:1;fill:#ececec;fill-opacity:1;stroke:none;stroke-width:5;stroke-miterlimit:4;stroke-dasharray:none;stroke-opacity:1" />
    <rect
       y="874.43945"
       x="281.95834"
       height="27.274"
       width="641.08344"
       id="rect4800-9-1-3-62-6"
       style="opacity:1;fill:#ececec;fill-opacity:1;stroke:none;stroke-width:5;stroke-miterlimit:4;stroke-dasharray:none;stroke-opacity:1" />
    <rect
       ry="10.003979"
       y="154.3688"
       x="112.11322"
       height="895.98682"
       width="1375.7736"
       id="rect4138-1"
       style="opacity:1;fill:none;fill-opacity:1;stroke:#7f2f21;stroke-width:4.64369488;stroke-miterlimit:4;stroke-dasharray:none;stroke-opacity:1" />
  </g>
  <path
     style="fill:none;fill-rule:evenodd;stroke:#7f2f21;stroke-width:16;stroke-linecap:butt;stroke-linejoin:miter;stroke-miterlimit:4;stroke-dasharray:none;stroke-opacity:1"
     d="m 640.2265,953.94477 49.98213,37.44694 49.98214,-37.44694"
     id="path5343"
     inkscape:connector-curvature="0" />
</svg>
