<svg xmlns="http://www.w3.org/2000/svg" xmlns:xlink="http://www.w3.org/1999/xlink" width="1380.417" height="1001.388" viewBox="0 0 1380.4172 1001.3879">
    <defs>
        <linearGradient id="b">
            <stop offset="0" stop-color="#1d1d1d"/>
            <stop offset="1" stop-color="#404040"/>
        </linearGradient>
        <linearGradient id="a">
            <stop offset="0" stop-color="#1d1d1d"/>
            <stop offset="1" stop-color="#1d1d1d" stop-opacity=".903"/>
        </linearGradient>
        <filter id="e" x="-.065" width="1.13" y="-.124" height="1.248" color-interpolation-filters="sRGB">
            <feGaussianBlur stdDeviation=".226"/>
        </filter>
        <linearGradient gradientTransform="translate(-69.652)" gradientUnits="userSpaceOnUse" y2="677.434" x2="1035.951" y1="130.962" x1="189.565" id="c" xlink:href="#b"/>
        <linearGradient gradientTransform="translate(-69.652)" gradientUnits="userSpaceOnUse" y2="766.475" x2="1191.639" y1="430.722" x1="660.011" id="d" xlink:href="#b"/>
        <linearGradient gradientUnits="userSpaceOnUse" y2="677.434" x2="1035.951" y1="130.962" x1="189.565" id="f" xlink:href="#b" gradientTransform="matrix(.14335 0 0 .3628 149.975 563.537)"/>
        <linearGradient gradientUnits="userSpaceOnUse" y2="677.434" x2="1035.951" y1="130.962" x1="189.565" id="g" xlink:href="#b" gradientTransform="matrix(.26638 0 0 .6201 1002.116 384.931)"/>
    </defs>
    <path d="M358.093 636.933h357.333c-49.508 62.214-46.095 119.764 0 173.553H358.093c38.933-52.363 54.45-108.026 0-173.553z" fill="#592115"/>
    <rect width="842.56" height="552.022" x="115.479" y="127.87" ry="6.264" fill="url(#c)" stroke="#6d2b15" stroke-width="36.83"/>
    <path d="M640.226 953.945l49.983 37.447 49.982-37.447" fill="none" stroke="#7f2f21" stroke-width="16"/>
    <rect width="544.938" height="357.029" x="582.118" y="422.305" ry="6.264" fill="url(#d)" stroke="#6d2b15" stroke-width="36.83"/>
    <path d="M562.048 780.062h702.38c.055 0 .1.045.1.1v22.668c0 6.866-9.113 11.478-18.392 11.478H575.428c-5.015 0-13.479-2.976-13.479-11.499v-22.648c0-.054.044-.099.1-.099z" fill="#b24523" stroke="#b24523" stroke-width="1.958"/>
    <rect transform="matrix(1.75382 0 0 1.75382 418.933 -600.416)" width="8.375" height="4.375" x="98.541" y="794.709" ry="2.188" fill="#7ef694" stroke="#b24523" filter="url(#e)"/>
    <rect width="120.783" height="200.272" x="176.514" y="609.928" ry="2.272" fill="url(#f)" stroke="#6d2b15" stroke-width="8.399"/>
    <rect width="224.438" height="342.305" x="1051.43" y="464.222" ry="3.884" fill="url(#g)" stroke="#6d2b15" stroke-width="14.969"/>
    <path fill="#6d2b15" d="M179.07 609.813h115.565v20.42H179.07zM178.284 787.873h115.565v20.42H178.284z"/>
    <rect ry="1.122" y="615.199" x="213.851" height="2.468" width="43.533" fill="#262626"/>
</svg>
